<svg xmlns="http://www.w3.org/2000/svg" version="1.1" viewBox="-5.0 -10.0 110.0 135.0">
 <path d="m58.18 58.129c-0.47266-0.058594-0.94922 0.074219-1.3242 0.36719-0.375 0.29297-0.61719 0.72266-0.67578 1.1953-0.066407 1.0508-0.94531 1.8711-2 1.8672-1.1758-0.011719-2.1836-0.84375-2.418-2 0.003906-0.050782 0.003906-0.10547 0-0.16016v-0.10156-1.7969c0.49609 0.039062 0.98438-0.13281 1.3477-0.47266 0.36719-0.33984 0.57422-0.8125 0.57422-1.3125 0-0.49609-0.20703-0.97266-0.57422-1.3125-0.36328-0.33984-0.85156-0.50781-1.3477-0.47266h-3.6211c-0.49609-0.035157-0.98828 0.13281-1.3516 0.47266-0.36719 0.33984-0.57422 0.81641-0.57422 1.3125 0 0.5 0.20703 0.97266 0.57422 1.3125 0.36328 0.33984 0.85547 0.51172 1.3516 0.47266v1.7695c0 0.14844 0.019531 0.29688 0.058594 0.44141-0.27734 1.082-1.25 1.8438-2.3711 1.8477-1.0469 0.003906-1.918-0.80469-2-1.8477-0.097656-0.98047-0.97266-1.6953-1.9531-1.5977-0.98047 0.10156-1.6953 0.97656-1.5938 1.957 0.23828 2.8906 2.6797 5.1016 5.5781 5.0586 1.5547 0.023438 3.0469-0.58594 4.1406-1.6875 1.0977 1.1094 2.6055 1.7227 4.1719 1.6875 2.8984 0.042969 5.3359-2.168 5.5781-5.0586 0.097656-0.96875-0.60156-1.8359-1.5703-1.9414z"/>
 <path d="m95 52c-0.19141-0.96875-1.1328-1.6016-2.1016-1.4102l-4.6094 0.91016c-0.65625-2.6016-1.8789-5.0234-3.5898-7.0898 0.1875-7.8633-1.4844-15.656-4.8789-22.75-0.40625-0.80078-1.3477-1.1719-2.1914-0.85938-6.5312 2.3281-12.711 8.8984-16.16 13.109-3.8047-0.48438-7.6328-0.71875-11.469-0.71094-3.8242-0.015625-7.6445 0.21484-11.441 0.69141-3.4492-4.2109-9.6289-10.781-16.16-13.109-0.83984-0.3125-1.7812 0.058594-2.1875 0.85938-3.3945 7.0938-5.0664 14.887-4.8828 22.75-1.707 2.0664-2.9336 4.4883-3.5898 7.0898l-4.6094-0.91016c-0.94922-0.14844-1.8438 0.48047-2.0312 1.4219-0.18359 0.94531 0.40625 1.8633 1.3438 2.0859l4.7812 0.94141c0 0.41016-0.050781 0.82031-0.050781 1.25 0 1.3984 0.15234 2.793 0.44922 4.1602l-5.1797 1c-0.47656 0.046874-0.91016 0.27734-1.2148 0.64453-0.30078 0.36719-0.44531 0.83594-0.40234 1.3125 0.09375 0.98438 0.96875 1.707 1.957 1.6133 0.11328 0.011719 0.23047 0.011719 0.34766 0l5.6016-1.1094c3.1406 7.1992 12.211 15.438 37.27 15.438s34.129-8.2383 37.27-15.48l5.6016 1.1523c0.11719 0.011719 0.23438 0.011719 0.34766 0 0.91016-0.019531 1.6602-0.71484 1.75-1.6172 0.085938-0.90625-0.51953-1.7344-1.4102-1.9219l-5.1797-1c0.29688-1.3672 0.44922-2.7617 0.44922-4.1602v-1.25l4.7695-0.94141h0.003906c0.46484-0.09375 0.87109-0.36719 1.1367-0.76562 0.26172-0.39453 0.35547-0.87891 0.26172-1.3438zm-10.109 7.7383-5.4102-1.0586c-0.96875-0.19141-1.9062 0.4375-2.0938 1.4062-0.19141 0.96484 0.4375 1.9023 1.4023 2.0938l4.8984 1c-4.0586 8.0586-15.836 12.582-33.688 12.582s-29.629-4.5234-33.691-12.613l4.8984-1h0.003907c0.96484-0.1875 1.5938-1.125 1.4023-2.0938-0.1875-0.96484-1.125-1.5938-2.0938-1.4062l-5.4102 1.0586v0.003907c-0.24609-1.1406-0.37109-2.3047-0.37109-3.4727v-0.55859l5.7617 1.1406h0.35156c0.90625-0.019531 1.6602-0.71484 1.7461-1.6172 0.085938-0.90625-0.51953-1.7344-1.4062-1.9219l-6-1.1719c0.59766-2.2227 1.7031-4.2734 3.2305-6 0.30859-0.35156 0.46875-0.8125 0.4375-1.2812-0.21484-6.8867 1.0977-13.734 3.8398-20.059 5.6016 2.6484 10.91 8.6289 13.699 12.141 0.39844 0.5 1.0312 0.75 1.6602 0.66016 3.957-0.54687 7.9492-0.8125 11.941-0.78906 3.9922-0.023438 7.9844 0.24219 11.941 0.78906 0.62891 0.089844 1.2617-0.16016 1.6602-0.66016 2.7891-3.5117 8.1094-9.4883 13.699-12.141 2.7266 6.3477 4.0156 13.223 3.7695 20.129-0.03125 0.46875 0.12891 0.92969 0.44141 1.2812 1.5234 1.7227 2.6289 3.7773 3.2266 6l-5.9492 1.1719c-0.88672 0.1875-1.4922 1.0156-1.4062 1.918 0.085938 0.90625 0.83984 1.6016 1.7461 1.6211h0.35156l5.7617-1.1406v0.55859h-0.003907c0.011719 1.1523-0.10547 2.3047-0.34766 3.4297z"/>
 <path d="m72.512 46.609c-0.17578-0.44141-0.51953-0.80078-0.95703-0.98828s-0.93359-0.19141-1.375-0.011719l-10.852 4.5508c-0.66406 0.27734-1.0938 0.92969-1.0938 1.6484 0 0.72266 0.42969 1.3711 1.0938 1.6523l10.852 4.5391c0.21484 0.089844 0.44531 0.13672 0.67969 0.14062 0.85156-0.003906 1.5859-0.60547 1.75-1.4375 0.16797-0.83594-0.27344-1.6719-1.0586-2.0039l-6.8789-2.8594 6.8789-2.8711c0.44531-0.17969 0.79688-0.53125 0.97656-0.97656 0.17969-0.44531 0.17578-0.94141-0.015625-1.3828z"/>
 <path d="m41.77 51.809c-0.003906-0.71875-0.4375-1.3672-1.0977-1.6484l-10.852-4.5117c-0.91016-0.375-1.9531 0.054687-2.332 0.96094-0.375 0.91016 0.054688 1.9531 0.96094 2.332l6.8789 2.8711-6.8789 2.8594c-0.78516 0.32812-1.2266 1.1641-1.0586 2 0.16406 0.83594 0.89844 1.4375 1.75 1.4375 0.23438-0.003906 0.46484-0.050781 0.67969-0.14062l10.852-4.5117v0.003907c0.66016-0.28125 1.0938-0.92969 1.0977-1.6523z"/>
<text x="0.0" y="117.5" font-size="5.0" font-weight="bold" font-family="Arbeit Regular, Helvetica, Arial-Unicode, Arial, Sans-serif" fill="#000000">Created by Kim Sun Young</text><text x="0.0" y="122.5" font-size="5.0" font-weight="bold" font-family="Arbeit Regular, Helvetica, Arial-Unicode, Arial, Sans-serif" fill="#000000">from Noun Project</text></svg>