<?xml version="1.0" standalone="no"?>
<svg xmlns:xlink="http://www.w3.org/1999/xlink" id="wave" style="transform:rotate(0deg); transition: 0.3s" viewBox="0 0 1440 490" version="1.1" xmlns="http://www.w3.org/2000/svg"><defs><linearGradient id="sw-gradient-0" x1="0" x2="0" y1="1" y2="0"><stop stop-color="rgba(59, 66, 82, 1)" offset="0%"/><stop stop-color="rgba(59, 66, 82, 1)" offset="100%"/></linearGradient></defs><path style="transform:translate(0, 0px); opacity:1" fill="url(#sw-gradient-0)" d="M0,0L26.7,16.3C53.3,33,107,65,160,106.2C213.3,147,267,196,320,179.7C373.3,163,427,82,480,106.2C533.3,131,587,261,640,285.8C693.3,310,747,229,800,171.5C853.3,114,907,82,960,81.7C1013.3,82,1067,114,1120,163.3C1173.3,212,1227,278,1280,318.5C1333.3,359,1387,376,1440,359.3C1493.3,343,1547,294,1600,302.2C1653.3,310,1707,376,1760,343C1813.3,310,1867,180,1920,171.5C1973.3,163,2027,278,2080,326.7C2133.3,376,2187,359,2240,351.2C2293.3,343,2347,343,2400,326.7C2453.3,310,2507,278,2560,269.5C2613.3,261,2667,278,2720,269.5C2773.3,261,2827,229,2880,212.3C2933.3,196,2987,196,3040,220.5C3093.3,245,3147,294,3200,277.7C3253.3,261,3307,180,3360,138.8C3413.3,98,3467,98,3520,155.2C3573.3,212,3627,327,3680,326.7C3733.3,327,3787,212,3813,155.2L3840,98L3840,490L3813.3,490C3786.7,490,3733,490,3680,490C3626.7,490,3573,490,3520,490C3466.7,490,3413,490,3360,490C3306.7,490,3253,490,3200,490C3146.7,490,3093,490,3040,490C2986.7,490,2933,490,2880,490C2826.7,490,2773,490,2720,490C2666.7,490,2613,490,2560,490C2506.7,490,2453,490,2400,490C2346.7,490,2293,490,2240,490C2186.7,490,2133,490,2080,490C2026.7,490,1973,490,1920,490C1866.7,490,1813,490,1760,490C1706.7,490,1653,490,1600,490C1546.7,490,1493,490,1440,490C1386.7,490,1333,490,1280,490C1226.7,490,1173,490,1120,490C1066.7,490,1013,490,960,490C906.7,490,853,490,800,490C746.7,490,693,490,640,490C586.7,490,533,490,480,490C426.7,490,373,490,320,490C266.7,490,213,490,160,490C106.7,490,53,490,27,490L0,490Z"/></svg>