<?xml version="1.0" standalone="no"?>
<svg xmlns:xlink="http://www.w3.org/1999/xlink" id="wave" style="transform:rotate(180deg); transition: 0.3s" viewBox="0 250 1440 150" version="1.1" xmlns="http://www.w3.org/2000/svg"><defs><linearGradient id="sw-gradient-0" x1="0" x2="0" y1="1" y2="0"><stop stop-color="rgba(46, 52, 64, 1)" offset="0%"/><stop stop-color="rgba(46, 52, 64, 1)" offset="100%"/></linearGradient></defs><path style="transform:translate(0, 0px); opacity:1" fill="url(#sw-gradient-0)" d="M0,294L120,302.2C240,310,480,327,720,318.5C960,310,1200,278,1440,277.7C1680,278,1920,310,2160,343C2400,376,2640,408,2880,359.3C3120,310,3360,180,3600,147C3840,114,4080,180,4320,228.7C4560,278,4800,310,5040,310.3C5280,310,5520,278,5760,285.8C6000,294,6240,343,6480,343C6720,343,6960,294,7200,253.2C7440,212,7680,180,7920,187.8C8160,196,8400,245,8640,253.2C8880,261,9120,229,9360,196C9600,163,9840,131,10080,106.2C10320,82,10560,65,10800,98C11040,131,11280,212,11520,236.8C11760,261,12000,229,12240,196C12480,163,12720,131,12960,114.3C13200,98,13440,98,13680,147C13920,196,14160,294,14400,334.8C14640,376,14880,359,15120,318.5C15360,278,15600,212,15840,220.5C16080,229,16320,310,16560,310.3C16800,310,17040,229,17160,187.8L17280,147L17280,490L17160,490C17040,490,16800,490,16560,490C16320,490,16080,490,15840,490C15600,490,15360,490,15120,490C14880,490,14640,490,14400,490C14160,490,13920,490,13680,490C13440,490,13200,490,12960,490C12720,490,12480,490,12240,490C12000,490,11760,490,11520,490C11280,490,11040,490,10800,490C10560,490,10320,490,10080,490C9840,490,9600,490,9360,490C9120,490,8880,490,8640,490C8400,490,8160,490,7920,490C7680,490,7440,490,7200,490C6960,490,6720,490,6480,490C6240,490,6000,490,5760,490C5520,490,5280,490,5040,490C4800,490,4560,490,4320,490C4080,490,3840,490,3600,490C3360,490,3120,490,2880,490C2640,490,2400,490,2160,490C1920,490,1680,490,1440,490C1200,490,960,490,720,490C480,490,240,490,120,490L0,490Z"/></svg>