<?xml version="1.0" standalone="no"?>
<svg xmlns:xlink="http://www.w3.org/1999/xlink" id="wave" style="transform:rotate(180deg); transition: 0.3s" viewBox="0 200 1440 200" version="1.1" xmlns="http://www.w3.org/2000/svg"><defs><linearGradient id="sw-gradient-0" x1="0" x2="0" y1="1" y2="0"><stop stop-color="rgba(216, 222, 233, 1)" offset="0%"/><stop stop-color="rgba(216, 222, 233, 1)" offset="100%"/></linearGradient></defs><path style="transform:translate(0, 0px); opacity:1" fill="url(#sw-gradient-0)" d="M0,245L34.3,236.8C68.6,229,137,212,206,228.7C274.3,245,343,294,411,285.8C480,278,549,212,617,228.7C685.7,245,754,343,823,367.5C891.4,392,960,343,1029,326.7C1097.1,310,1166,327,1234,334.8C1302.9,343,1371,343,1440,294C1508.6,245,1577,147,1646,138.8C1714.3,131,1783,212,1851,245C1920,278,1989,261,2057,236.8C2125.7,212,2194,180,2263,187.8C2331.4,196,2400,245,2469,228.7C2537.1,212,2606,131,2674,114.3C2742.9,98,2811,147,2880,147C2948.6,147,3017,98,3086,65.3C3154.3,33,3223,16,3291,8.2C3360,0,3429,0,3497,8.2C3565.7,16,3634,33,3703,98C3771.4,163,3840,278,3909,326.7C3977.1,376,4046,359,4114,318.5C4182.9,278,4251,212,4320,163.3C4388.6,114,4457,82,4526,114.3C4594.3,147,4663,245,4731,294C4800,343,4869,343,4903,343L4937.1,343L4937.1,490L4902.9,490C4868.6,490,4800,490,4731,490C4662.9,490,4594,490,4526,490C4457.1,490,4389,490,4320,490C4251.4,490,4183,490,4114,490C4045.7,490,3977,490,3909,490C3840,490,3771,490,3703,490C3634.3,490,3566,490,3497,490C3428.6,490,3360,490,3291,490C3222.9,490,3154,490,3086,490C3017.1,490,2949,490,2880,490C2811.4,490,2743,490,2674,490C2605.7,490,2537,490,2469,490C2400,490,2331,490,2263,490C2194.3,490,2126,490,2057,490C1988.6,490,1920,490,1851,490C1782.9,490,1714,490,1646,490C1577.1,490,1509,490,1440,490C1371.4,490,1303,490,1234,490C1165.7,490,1097,490,1029,490C960,490,891,490,823,490C754.3,490,686,490,617,490C548.6,490,480,490,411,490C342.9,490,274,490,206,490C137.1,490,69,490,34,490L0,490Z"/></svg>