<?xml version="1.0" standalone="no"?>
<svg xmlns:xlink="http://www.w3.org/1999/xlink" id="wave" style="transform:rotate(0deg); transition: 0.3s" viewBox="0 190 1440 180" version="1.1" xmlns="http://www.w3.org/2000/svg"><defs><linearGradient id="sw-gradient-0" x1="0" x2="0" y1="1" y2="0"><stop stop-color="rgba(216, 222, 233, 1)" offset="0%"/><stop stop-color="rgba(216, 222, 233, 1)" offset="100%"/></linearGradient></defs><path style="transform:translate(0, 0px); opacity:1" fill="url(#sw-gradient-0)" d="M0,196L80,204.2C160,212,320,229,480,269.5C640,310,800,376,960,367.5C1120,359,1280,278,1440,236.8C1600,196,1760,196,1920,187.8C2080,180,2240,163,2400,179.7C2560,196,2720,245,2880,277.7C3040,310,3200,327,3360,294C3520,261,3680,180,3840,122.5C4000,65,4160,33,4320,16.3C4480,0,4640,0,4800,24.5C4960,49,5120,98,5280,155.2C5440,212,5600,278,5760,285.8C5920,294,6080,245,6240,236.8C6400,229,6560,261,6720,245C6880,229,7040,163,7200,163.3C7360,163,7520,229,7680,261.3C7840,294,8000,294,8160,261.3C8320,229,8480,163,8640,138.8C8800,114,8960,131,9120,114.3C9280,98,9440,49,9600,89.8C9760,131,9920,261,10080,318.5C10240,376,10400,359,10560,294C10720,229,10880,114,11040,98C11200,82,11360,163,11440,204.2L11520,245L11520,490L11440,490C11360,490,11200,490,11040,490C10880,490,10720,490,10560,490C10400,490,10240,490,10080,490C9920,490,9760,490,9600,490C9440,490,9280,490,9120,490C8960,490,8800,490,8640,490C8480,490,8320,490,8160,490C8000,490,7840,490,7680,490C7520,490,7360,490,7200,490C7040,490,6880,490,6720,490C6560,490,6400,490,6240,490C6080,490,5920,490,5760,490C5600,490,5440,490,5280,490C5120,490,4960,490,4800,490C4640,490,4480,490,4320,490C4160,490,4000,490,3840,490C3680,490,3520,490,3360,490C3200,490,3040,490,2880,490C2720,490,2560,490,2400,490C2240,490,2080,490,1920,490C1760,490,1600,490,1440,490C1280,490,1120,490,960,490C800,490,640,490,480,490C320,490,160,490,80,490L0,490Z"/></svg>