<?xml version="1.0" standalone="no"?>
<svg xmlns:xlink="http://www.w3.org/1999/xlink" id="wave" style="transform:rotate(0deg); transition: 0.3s" viewBox="0 100 1440 300" version="1.1" xmlns="http://www.w3.org/2000/svg"><defs><linearGradient id="sw-gradient-0" x1="0" x2="0" y1="1" y2="0"><stop stop-color="rgba(46, 52, 64, 1)" offset="0%"/><stop stop-color="rgba(46, 52, 64, 1)" offset="100%"/></linearGradient></defs><path style="transform:translate(0, 0px); opacity:1" fill="url(#sw-gradient-0)" d="M0,392L80,383.8C160,376,320,359,480,359.3C640,359,800,376,960,326.7C1120,278,1280,163,1440,138.8C1600,114,1760,180,1920,179.7C2080,180,2240,114,2400,114.3C2560,114,2720,180,2880,196C3040,212,3200,180,3360,187.8C3520,196,3680,245,3840,228.7C4000,212,4160,131,4320,89.8C4480,49,4640,49,4800,106.2C4960,163,5120,278,5280,310.3C5440,343,5600,294,5760,294C5920,294,6080,343,6240,302.2C6400,261,6560,131,6720,73.5C6880,16,7040,33,7200,106.2C7360,180,7520,310,7680,302.2C7840,294,8000,147,8160,147C8320,147,8480,294,8640,367.5C8800,441,8960,441,9120,424.7C9280,408,9440,376,9600,343C9760,310,9920,278,10080,277.7C10240,278,10400,310,10560,277.7C10720,245,10880,147,11040,147C11200,147,11360,245,11440,294L11520,343L11520,490L11440,490C11360,490,11200,490,11040,490C10880,490,10720,490,10560,490C10400,490,10240,490,10080,490C9920,490,9760,490,9600,490C9440,490,9280,490,9120,490C8960,490,8800,490,8640,490C8480,490,8320,490,8160,490C8000,490,7840,490,7680,490C7520,490,7360,490,7200,490C7040,490,6880,490,6720,490C6560,490,6400,490,6240,490C6080,490,5920,490,5760,490C5600,490,5440,490,5280,490C5120,490,4960,490,4800,490C4640,490,4480,490,4320,490C4160,490,4000,490,3840,490C3680,490,3520,490,3360,490C3200,490,3040,490,2880,490C2720,490,2560,490,2400,490C2240,490,2080,490,1920,490C1760,490,1600,490,1440,490C1280,490,1120,490,960,490C800,490,640,490,480,490C320,490,160,490,80,490L0,490Z"/></svg>