<?xml version="1.0" standalone="no"?>
<svg xmlns:xlink="http://www.w3.org/1999/xlink" id="wave" style="transform:rotate(0deg); transition: 0.3s" viewBox="0 0 1440 490" version="1.1" xmlns="http://www.w3.org/2000/svg"><defs><linearGradient id="sw-gradient-0" x1="0" x2="0" y1="1" y2="0"><stop stop-color="rgba(46, 52, 64, 1)" offset="0%"/><stop stop-color="rgba(46, 52, 64, 1)" offset="100%"/></linearGradient></defs><path style="transform:translate(0, 0px); opacity:1" fill="url(#sw-gradient-0)" d="M0,196L18.5,171.5C36.9,147,74,98,111,81.7C147.7,65,185,82,222,147C258.5,212,295,327,332,334.8C369.2,343,406,245,443,245C480,245,517,343,554,318.5C590.8,294,628,147,665,114.3C701.5,82,738,163,775,236.8C812.3,310,849,376,886,367.5C923.1,359,960,278,997,253.2C1033.8,229,1071,261,1108,285.8C1144.6,310,1182,327,1218,318.5C1255.4,310,1292,278,1329,277.7C1366.2,278,1403,310,1440,334.8C1476.9,359,1514,376,1551,375.7C1587.7,376,1625,359,1662,367.5C1698.5,376,1735,408,1772,383.8C1809.2,359,1846,278,1883,245C1920,212,1957,229,1994,245C2030.8,261,2068,278,2105,285.8C2141.5,294,2178,294,2215,302.2C2252.3,310,2289,327,2326,351.2C2363.1,376,2400,408,2437,351.2C2473.8,294,2511,147,2548,89.8C2584.6,33,2622,65,2640,81.7L2658.5,98L2658.5,490L2640,490C2621.5,490,2585,490,2548,490C2510.8,490,2474,490,2437,490C2400,490,2363,490,2326,490C2289.2,490,2252,490,2215,490C2178.5,490,2142,490,2105,490C2067.7,490,2031,490,1994,490C1956.9,490,1920,490,1883,490C1846.2,490,1809,490,1772,490C1735.4,490,1698,490,1662,490C1624.6,490,1588,490,1551,490C1513.8,490,1477,490,1440,490C1403.1,490,1366,490,1329,490C1292.3,490,1255,490,1218,490C1181.5,490,1145,490,1108,490C1070.8,490,1034,490,997,490C960,490,923,490,886,490C849.2,490,812,490,775,490C738.5,490,702,490,665,490C627.7,490,591,490,554,490C516.9,490,480,490,443,490C406.2,490,369,490,332,490C295.4,490,258,490,222,490C184.6,490,148,490,111,490C73.8,490,37,490,18,490L0,490Z"/></svg>