<?xml version="1.0" standalone="no"?>
<svg xmlns:xlink="http://www.w3.org/1999/xlink" id="wave" style="transform:rotate(0deg); transition: 0.3s" viewBox="0 150 1440 200" version="1.1" xmlns="http://www.w3.org/2000/svg"><defs><linearGradient id="sw-gradient-0" x1="0" x2="0" y1="1" y2="0"><stop stop-color="rgba(76, 86, 106, 1)" offset="0%"/><stop stop-color="rgba(76, 86, 106, 1)" offset="100%"/></linearGradient></defs><path style="transform:translate(0, 0px); opacity:1" fill="url(#sw-gradient-0)" d="M0,245L80,228.7C160,212,320,180,480,204.2C640,229,800,310,960,302.2C1120,294,1280,196,1440,171.5C1600,147,1760,196,1920,187.8C2080,180,2240,114,2400,147C2560,180,2720,310,2880,310.3C3040,310,3200,180,3360,179.7C3520,180,3680,310,3840,375.7C4000,441,4160,441,4320,383.8C4480,327,4640,212,4800,187.8C4960,163,5120,229,5280,285.8C5440,343,5600,392,5760,375.7C5920,359,6080,278,6240,277.7C6400,278,6560,359,6720,383.8C6880,408,7040,376,7200,326.7C7360,278,7520,212,7680,163.3C7840,114,8000,82,8160,98C8320,114,8480,180,8640,228.7C8800,278,8960,310,9120,269.5C9280,229,9440,114,9600,57.2C9760,0,9920,0,10080,0C10240,0,10400,0,10560,32.7C10720,65,10880,131,11040,179.7C11200,229,11360,261,11440,277.7L11520,294L11520,490L11440,490C11360,490,11200,490,11040,490C10880,490,10720,490,10560,490C10400,490,10240,490,10080,490C9920,490,9760,490,9600,490C9440,490,9280,490,9120,490C8960,490,8800,490,8640,490C8480,490,8320,490,8160,490C8000,490,7840,490,7680,490C7520,490,7360,490,7200,490C7040,490,6880,490,6720,490C6560,490,6400,490,6240,490C6080,490,5920,490,5760,490C5600,490,5440,490,5280,490C5120,490,4960,490,4800,490C4640,490,4480,490,4320,490C4160,490,4000,490,3840,490C3680,490,3520,490,3360,490C3200,490,3040,490,2880,490C2720,490,2560,490,2400,490C2240,490,2080,490,1920,490C1760,490,1600,490,1440,490C1280,490,1120,490,960,490C800,490,640,490,480,490C320,490,160,490,80,490L0,490Z"/></svg>