<?xml version="1.0" standalone="no"?>
<svg xmlns:xlink="http://www.w3.org/1999/xlink" id="wave" style="transform:rotate(0deg); transition: 0.3s" viewBox="0 60 1440 350" version="1.1" xmlns="http://www.w3.org/2000/svg"><defs><linearGradient id="sw-gradient-0" x1="0" x2="0" y1="1" y2="0"><stop stop-color="rgba(76, 86, 106, 1)" offset="0%"/><stop stop-color="rgba(76, 86, 106, 1)" offset="100%"/></linearGradient></defs><path style="transform:translate(0, 0px); opacity:1" fill="url(#sw-gradient-0)" d="M0,245L24,245C48,245,96,245,144,220.5C192,196,240,147,288,163.3C336,180,384,261,432,253.2C480,245,528,147,576,114.3C624,82,672,114,720,171.5C768,229,816,310,864,334.8C912,359,960,327,1008,326.7C1056,327,1104,359,1152,383.8C1200,408,1248,425,1296,375.7C1344,327,1392,212,1440,196C1488,180,1536,261,1584,277.7C1632,294,1680,245,1728,220.5C1776,196,1824,196,1872,220.5C1920,245,1968,294,2016,285.8C2064,278,2112,212,2160,196C2208,180,2256,212,2304,228.7C2352,245,2400,245,2448,261.3C2496,278,2544,310,2592,326.7C2640,343,2688,343,2736,326.7C2784,310,2832,278,2880,245C2928,212,2976,180,3024,171.5C3072,163,3120,180,3168,171.5C3216,163,3264,131,3312,155.2C3360,180,3408,261,3432,302.2L3456,343L3456,490L3432,490C3408,490,3360,490,3312,490C3264,490,3216,490,3168,490C3120,490,3072,490,3024,490C2976,490,2928,490,2880,490C2832,490,2784,490,2736,490C2688,490,2640,490,2592,490C2544,490,2496,490,2448,490C2400,490,2352,490,2304,490C2256,490,2208,490,2160,490C2112,490,2064,490,2016,490C1968,490,1920,490,1872,490C1824,490,1776,490,1728,490C1680,490,1632,490,1584,490C1536,490,1488,490,1440,490C1392,490,1344,490,1296,490C1248,490,1200,490,1152,490C1104,490,1056,490,1008,490C960,490,912,490,864,490C816,490,768,490,720,490C672,490,624,490,576,490C528,490,480,490,432,490C384,490,336,490,288,490C240,490,192,490,144,490C96,490,48,490,24,490L0,490Z"/></svg>